<svg xmlns="http://www.w3.org/2000/svg" viewBox="0 0 121.09 164.14"><defs><style>.cls-1{fill:#6b6a2c;}.cls-2{fill:#9b9895;}</style></defs><title>Asset 4</title><g id="Layer_2" data-name="Layer 2"><g id="Layer_1-2" data-name="Layer 1"><path class="cls-1" d="M39.56,50.52S42.22,5.38,61.82,12.11,72.9,74.47,72.9,74.47Z"/><path class="cls-1" d="M73.1,28.15s48.7-34.64,23.16,9.5S73.1,28.15,73.1,28.15Z"/><path class="cls-1" d="M20.84,72.89S2.23,54.87.05,26.76,61.62,62,48,74.47,20.84,72.89,20.84,72.89Z"/><path class="cls-1" d="M56.47,45.17S42.81-10.06,21.24,1.62c0,0-7.13,14.65,19.59,61.57S56.47,45.17,56.47,45.17Z"/><path class="cls-1" d="M86.06,51.91s27.82-22,34.35-11.48S84,81.2,84,81.2Z"/><path class="cls-1" d="M65.18,43s40-25.69,46.13-6.49c0,0,.59,20-31.08,36.43S65.18,43,65.18,43Z"/><path class="cls-1" d="M54.54,53s8-24.94,29.6-22.37c0,0,5.93,11.29-12.08,39.79S54.54,53,54.54,53Z"/><path class="cls-2" d="M102.42,66.93A365.38,365.38,0,0,1,59.28,69.3a370.94,370.94,0,0,1-41-2.12,6.3,6.3,0,0,0-3,5.23v7.31a6.39,6.39,0,0,0,3.5,5.51c2.06,18.66,6.11,51.47,10.44,66.21,3,10.13,17.24,13.33,31.35,12.61V86.24h0v77.81c14.11.72,28.37-2.48,31.35-12.61,4.33-14.73,8.37-47.53,10.44-66.2a6.39,6.39,0,0,0,3.53-5.52V72.41A6.39,6.39,0,0,0,102.42,66.93Z"/></g></g></svg>