<svg xmlns="http://www.w3.org/2000/svg" viewBox="0 0 121.09 195.29"><defs><style>.cls-1{fill:#6e6a2c;}.cls-2{fill:#999837;}.cls-3{fill:#6b6a2c;}.cls-4{fill:#5b572a;}.cls-5{fill:#524c20;}.cls-6{fill:#504921;}.cls-7{fill:#b8b1ab;}.cls-8{fill:#9c958c;}.cls-9{fill:#231f20;}.cls-10{fill:#74712e;}.cls-11{fill:#5f5d28;}.cls-12{fill:#603913;}.cls-13{fill:#9b9895;}</style></defs><title>Asset 2</title><g id="Layer_2" data-name="Layer 2"><g id="Layer_1-2" data-name="Layer 1"><path class="cls-1" d="M39.56,50.52S42.22,5.38,61.82,12.11,72.9,74.47,72.9,74.47Z"/><path class="cls-2" d="M73.1,28.15s48.7-34.64,23.16,9.5S73.1,28.15,73.1,28.15Z"/><path class="cls-3" d="M20.84,72.89S2.23,54.87.05,26.76,61.62,62,48,74.47,20.84,72.89,20.84,72.89Z"/><path class="cls-4" d="M56.47,45.17S42.81-10.06,21.24,1.62c0,0-7.13,14.65,19.59,61.57S56.47,45.17,56.47,45.17Z"/><path class="cls-5" d="M44.36,61.44s41.76-59.93,42.56,4.8S44.36,61.44,44.36,61.44Z"/><path class="cls-6" d="M86.06,51.91s27.82-22,34.35-11.48S84,81.2,84,81.2Z"/><path class="cls-7" d="M60.55,80.86v83.19c14.11.72,28.37-2.48,31.35-12.61,6.23-21.21,11.88-79.88,11.88-79.88A96.52,96.52,0,0,1,60.55,80.86Z"/><path class="cls-7" d="M17.31,71.56S23,130.23,29.19,151.44c3,10.13,17.24,13.33,31.35,12.61V80.86A96.53,96.53,0,0,1,17.31,71.56Z"/><path class="cls-8" d="M46.76,154.55c-3-1.18-6.42-.33-7.69,1.9-.07.12-.12.24-.18.36L29.24,174.5a20.94,20.94,0,0,0-3.79-1.89c-8.67-3.28-18.78-1.22-22.56,4.61s.17,13.22,8.84,16.51,18.78,1.21,22.57-4.62c.09-.14.16-.29.24-.43h0l15-27.56c.09-.13.17-.25.25-.39C51.13,158.51,49.74,155.74,46.76,154.55Z"/><path class="cls-8" d="M74.76,154.55c3-1.18,6.42-.33,7.69,1.9.06.12.12.24.17.36l9.66,17.69a20.62,20.62,0,0,1,3.79-1.89c8.67-3.28,18.77-1.22,22.56,4.61s-.17,13.22-8.84,16.51S91,194.94,87.22,189.11c-.09-.14-.16-.29-.24-.43h0l-15-27.56c-.09-.13-.17-.25-.25-.39C70.39,158.51,71.78,155.74,74.76,154.55Z"/><path class="cls-9" d="M40.35,121.41c-1.27,1.09-1.22,3.25.12,4.82s3.47,2,4.74.85,1.23-3.25-.11-4.82S41.63,120.31,40.35,121.41Z"/><path class="cls-9" d="M86.16,120.56c-1.29-.45-2.83.58-3.43,2.32s0,3.49,1.25,4,2.84-.59,3.44-2.32S87.46,121,86.16,120.56Z"/><path class="cls-9" d="M75.17,136.05c-2.91,4.5-7.64,10.26-13.74,9C58,144.36,55.12,141.75,53,139a18,18,0,0,1-1.39-2,.63.63,0,0,0-1.08.63c3.36,5.89,10.26,11.14,17.12,7.76,3.7-1.82,6.39-5.29,8.58-8.67C76.69,136,75.61,135.37,75.17,136.05Z"/><path class="cls-10" d="M65.18,43s40-25.69,46.13-6.49c0,0,.59,20-31.08,36.43S65.18,43,65.18,43Z"/><path class="cls-11" d="M57.78,38.24s8-24.94,29.59-22.37c0,0,5.94,11.29-12.07,39.79S57.78,38.24,57.78,38.24Z"/><ellipse class="cls-12" cx="60.54" cy="71.35" rx="45.06" ry="11.38"/><path class="cls-13" d="M102.42,66.93A365.38,365.38,0,0,1,59.28,69.3a370.94,370.94,0,0,1-41-2.12,6.3,6.3,0,0,0-3,5.23v7.31c0,3.58,3.36,6.52,7.47,6.52H98.4c4.11,0,7.47-2.94,7.47-6.52V72.41A6.39,6.39,0,0,0,102.42,66.93Z"/></g></g></svg>