<svg xmlns="http://www.w3.org/2000/svg" viewBox="0 0 121.09 195.29"><defs><style>.cls-1{fill:#6e6a2c;}.cls-2{fill:#999837;}.cls-3{fill:#6b6a2c;}.cls-4{fill:#5b572a;}.cls-5{fill:#524c20;}.cls-6{fill:#504921;}.cls-7{fill:#74712e;}.cls-8{fill:#5f5d28;}.cls-9{fill:#9b9895;}.cls-10{fill:#231f20;}</style></defs><title>Asset 3</title><g id="Layer_2" data-name="Layer 2"><g id="Layer_1-2" data-name="Layer 1"><path class="cls-1" d="M39.56,50.52S42.22,5.38,61.82,12.11,72.9,74.47,72.9,74.47Z"/><path class="cls-2" d="M73.1,28.15s48.7-34.64,23.16,9.5S73.1,28.15,73.1,28.15Z"/><path class="cls-3" d="M20.84,72.89S2.23,54.87.05,26.76,61.62,62,48,74.47,20.84,72.89,20.84,72.89Z"/><path class="cls-4" d="M56.47,45.17S42.81-10.06,21.24,1.62c0,0-7.13,14.65,19.59,61.57S56.47,45.17,56.47,45.17Z"/><path class="cls-5" d="M44.36,70.92S86.12,11,86.92,75.72,44.36,70.92,44.36,70.92Z"/><path class="cls-6" d="M86.06,51.91s27.82-22,34.35-11.48S84,81.2,84,81.2Z"/><path class="cls-7" d="M65.18,43s40-25.69,46.13-6.49c0,0,.59,20-31.08,36.43S65.18,43,65.18,43Z"/><path class="cls-8" d="M56.39,43.15s8-29.74,29.6-26.67c0,0,5.94,13.46-12.08,47.44S56.39,43.15,56.39,43.15Z"/><path class="cls-9" d="M118.63,177.22c-3.79-5.83-13.89-7.89-22.56-4.61a20.62,20.62,0,0,0-3.79,1.89L84.4,160.07c3.68-2,6.38-4.83,7.5-8.63,4.33-14.73,8.37-47.53,10.44-66.2a6.39,6.39,0,0,0,3.53-5.52V72.41a6.39,6.39,0,0,0-3.45-5.48A365.38,365.38,0,0,1,59.28,69.3a370.94,370.94,0,0,1-41-2.12,6.3,6.3,0,0,0-3,5.23v7.31a6.39,6.39,0,0,0,3.5,5.51c2.06,18.66,6.11,51.47,10.44,66.21,1.15,3.91,4,6.78,7.84,8.8L29.24,174.5a20.94,20.94,0,0,0-3.79-1.89c-8.67-3.28-18.78-1.22-22.56,4.61s.17,13.22,8.84,16.51,18.78,1.21,22.57-4.62c.09-.14.16-.29.24-.43h0l13.71-25.11a65.42,65.42,0,0,0,12.27.47V86.24h0v77.81a64.58,64.58,0,0,0,12.67-.53L87,188.69h0c.08.14.15.29.24.43,3.79,5.83,13.9,7.9,22.57,4.62S122.42,183.05,118.63,177.22Z"/><path class="cls-10" d="M40.35,121.41c-1.27,1.09-1.22,3.25.12,4.82s3.47,2,4.74.85,1.23-3.25-.11-4.82S41.63,120.31,40.35,121.41Z"/><path class="cls-10" d="M86.16,120.56c-1.29-.45-2.83.58-3.43,2.32s0,3.49,1.25,4,2.84-.59,3.44-2.32S87.46,121,86.16,120.56Z"/><path class="cls-10" d="M75.17,136.05c-2.91,4.5-7.64,10.26-13.74,9C58,144.36,55.12,141.75,53,139a18,18,0,0,1-1.39-2,.63.63,0,0,0-1.08.63c3.36,5.89,10.26,11.14,17.12,7.76,3.7-1.82,6.39-5.29,8.58-8.67C76.69,136,75.61,135.37,75.17,136.05Z"/></g></g></svg>