<svg xmlns="http://www.w3.org/2000/svg" viewBox="0 0 185.2 113.81"><defs><style>.cls-1{fill:#00aeef;}.cls-2{fill:#f15a29;}.cls-3{fill:#f04e67;}.cls-4{fill:#005fa6;}</style></defs><title>Asset 7</title><g id="Layer_2" data-name="Layer 2"><g id="Layer_1-2" data-name="Layer 1"><path class="cls-1" d="M144.61,44.36s-15.23-8.82-20.94-8.65-13.84,11.4,1.21,16.08c0,0-13.67,14.2,15.75,19.91C140.63,71.7,150.83,68.07,144.61,44.36Z"/><path class="cls-2" d="M134,25.11S107.45-23.9,14,15c0,0,48.33,7.28,60,38.67S134,25.11,134,25.11Z"/><path class="cls-3" d="M66.87,51.47S23.36,45.73,0,102.79c0,0,49.05-26.49,90.32-19.37L38.15,112.06S119.1,128.44,153,60.84,66.87,51.47,66.87,51.47Z"/><path class="cls-4" d="M66.87,51.47S120.39,20.11,134,25.11c0,0,31.95-1.6,42.54,6.19,0,0,7.15-3.19,6.29,3,0,0,6.76-.34-2.39,8.72A48.12,48.12,0,0,1,153,60.84S124.39,76.7,69.43,71.23C69.43,71.23,42,64.78,66.87,51.47Z"/><path class="cls-1" d="M151,46.91s-15.22-8.83-20.93-8.65-13.85,11.4,1.21,16.08c0,0-13.67,14.2,15.74,19.91C147.06,74.25,157.27,70.61,151,46.91Z"/></g></g></svg>