<svg xmlns="http://www.w3.org/2000/svg" xmlns:xlink="http://www.w3.org/1999/xlink" viewBox="0 0 189.69 150.89"><defs><style>.cls-1{fill:url(#linear-gradient);}.cls-2{fill:#f68a50;}.cls-3{fill:url(#linear-gradient-2);}.cls-4{fill:url(#New_Gradient_Swatch_1);}.cls-5{fill:url(#linear-gradient-3);}.cls-6{fill:#333132;}.cls-7{fill:#231f20;}</style><linearGradient id="linear-gradient" y1="102.34" x2="148.32" y2="102.34" gradientUnits="userSpaceOnUse"><stop offset="0" stop-color="#ee386e"/><stop offset="0.08" stop-color="#ef5159"/><stop offset="0.17" stop-color="#ef6449"/><stop offset="0.27" stop-color="#f06f3f"/><stop offset="0.37" stop-color="#f0733c"/><stop offset="0.66" stop-color="#f5931e"/><stop offset="0.88" stop-color="#e93e3a"/></linearGradient><linearGradient id="linear-gradient-2" x1="48.64" y1="63.69" x2="125" y2="0.57" gradientUnits="userSpaceOnUse"><stop offset="0.22" stop-color="#ee386e"/><stop offset="0.29" stop-color="#ef5159"/><stop offset="0.36" stop-color="#ef6449"/><stop offset="0.43" stop-color="#f06f3f"/><stop offset="0.5" stop-color="#f0733c"/><stop offset="0.73" stop-color="#f5931e"/><stop offset="0.95" stop-color="#e93e3a"/></linearGradient><linearGradient id="New_Gradient_Swatch_1" x1="60.92" y1="50.48" x2="189.69" y2="50.48" gradientUnits="userSpaceOnUse"><stop offset="0" stop-color="#00bff3"/><stop offset="0.65" stop-color="#004fa3"/><stop offset="1" stop-color="#233e99"/></linearGradient><linearGradient id="linear-gradient-3" x1="126.09" y1="62.92" x2="150.5" y2="44.92" gradientUnits="userSpaceOnUse"><stop offset="0.24" stop-color="#00bff3"/><stop offset="0.86" stop-color="#004fa3"/><stop offset="1" stop-color="#233e99"/></linearGradient></defs><title>Asset 5</title><g id="Layer_2" data-name="Layer 2"><g id="Layer_1-2" data-name="Layer 1"><path class="cls-1" d="M76,60.17s-24.48-8-58,7.73c0,0,21.91-8,37.89-2.32,0,0-30.67-2.06-53.87,28.35,0,0,31.44-27.84,59-24C61.08,70,10,78.47,0,115.58c0,0,22.94-36.08,53.09-37.89,0,0-37.63,17-46.13,44.85,0,0,32.21-39.69,61.08-46.91,0,0-43.81,30.15-52.83,57.47,0,0,46.64-57.21,60.82-53.86,0,0-40.21,26.29-47.94,50,0,0,47.94-55.16,61.34-51.29,0,0-37.63,33-46.39,55.15,0,0,44.33-60,60.05-53.35,0,0-17.27,16.5-43.3,39.18,0,0,40.72-27.58,52.58-39.43,0,0-36.86,45.61-60,58.5,0,0,67.27-44.84,67-58.25,0,0-14.69,43.3-50.52,63.66,0,0,53.09-33.24,60.05-62.11,0,0-7.21,52.32-25.51,69.59,0,0,36.6-51,37.63-74.23,0,0,3.86,30.93-6.19,56.44,0,0,17-37.62,12.89-64.69S76,60.17,76,60.17Z"/><path class="cls-2" d="M80.41,48.39c4.74-6.33,10.66-8.9,17.43-.78,17.87,21.45,40.62-19.75,40.62-19.75"/><path class="cls-3" d="M138.46,27.11S127.13,2.15,91.87,0c0,0,13.93,2.91,17.08,8,0,0-22-8-44,4.59,0,0,27.33-8.71,37.74,0,0,0-50.33-2.9-63.15,38.47,0,0,20.08-31,44-30,0,0-38.14,14.13-42.23,45.29,0,0,13.45-26.05,29.8-30.82,0,0-21.11,20.77-15.84,57.55,0,0,7.32-56,26-52.61,0,0-5,3.84-8.95,12.43"/><path class="cls-4" d="M71.35,53.48s53.53-31.36,67.11-26.37c0,0,31.95-1.59,42.53,6.2,0,0,7.15-3.2,6.3,3,0,0,6.75-.34-2.39,8.71a48.17,48.17,0,0,1-27.43,17.86S128.88,78.7,73.91,73.24C73.91,73.24,46.47,66.79,71.35,53.48Z"/><path class="cls-2" d="M72.37,52.77c-2.82,6.21-5,14.89-4.33,26.4,0,0,4.6-20.51,12.37-30.89"/><path class="cls-5" d="M149.09,46.37s-15.23-8.83-20.94-8.65-13.84,11.4,1.21,16.08c0,0-13.67,14.2,15.75,19.91C145.11,73.71,155.32,70.07,149.09,46.37Z"/><circle class="cls-6" cx="167.43" cy="39.56" r="5.33"/><circle class="cls-7" cx="167.43" cy="39.56" r="3.86"/></g></g></svg>